<?xml version="1.0" encoding="us-ascii" standalone="no"?><svg xmlns="http://www.w3.org/2000/svg" xmlns:xlink="http://www.w3.org/1999/xlink" contentStyleType="text/css" height="652px" preserveAspectRatio="none" style="width:795px;height:652px;background:#FFFFFF;" version="1.1" viewBox="0 0 795 652" width="795px" zoomAndPan="magnify"><defs/><g><!--class Organization--><g id="elem_Organization"><rect codeLine="2" fill="#F1F1F1" height="113.1875" id="Organization" rx="2.5" ry="2.5" style="stroke:#181818;stroke-width:0.5;" width="194" x="194" y="532"/><ellipse cx="243.25" cy="548" fill="#ADD1B2" rx="11" ry="11" style="stroke:#181818;stroke-width:1.0;"/><path d="M246.2188,553.6406 Q245.6406,553.9375 245,554.0781 Q244.3594,554.2344 243.6563,554.2344 Q241.1563,554.2344 239.8281,552.5938 Q238.5156,550.9375 238.5156,547.8125 Q238.5156,544.6875 239.8281,543.0313 Q241.1563,541.375 243.6563,541.375 Q244.3594,541.375 245,541.5313 Q245.6563,541.6875 246.2188,541.9844 L246.2188,544.7031 Q245.5938,544.125 245,543.8594 Q244.4063,543.5781 243.7813,543.5781 Q242.4375,543.5781 241.75,544.6563 Q241.0625,545.7188 241.0625,547.8125 Q241.0625,549.9063 241.75,550.9844 Q242.4375,552.0469 243.7813,552.0469 Q244.4063,552.0469 245,551.7813 Q245.5938,551.5 246.2188,550.9219 L246.2188,553.6406 Z " fill="#000000"/><text fill="#000000" font-family="sans-serif" font-size="14" lengthAdjust="spacing" textLength="87" x="263.75" y="552.8467">Organization</text><line style="stroke:#181818;stroke-width:0.5;" x1="195" x2="387" y1="564" y2="564"/><rect fill="none" height="6" style="stroke:#C82930;stroke-width:1.0;" width="6" x="202" y="574.6484"/><text fill="#000000" font-family="sans-serif" font-size="14" lengthAdjust="spacing" textLength="88" x="214" y="580.9951">name: String</text><rect fill="none" height="6" style="stroke:#C82930;stroke-width:1.0;" width="6" x="202" y="590.9453"/><text fill="#000000" font-family="sans-serif" font-size="14" lengthAdjust="spacing" textLength="98" x="214" y="597.292">phome: String</text><rect fill="none" height="6" style="stroke:#C82930;stroke-width:1.0;" width="6" x="202" y="607.2422"/><text fill="#000000" font-family="sans-serif" font-size="14" lengthAdjust="spacing" textLength="105" x="214" y="613.5889">address: String</text><rect fill="none" height="6" style="stroke:#C82930;stroke-width:1.0;" width="6" x="202" y="623.5391"/><text fill="#000000" font-family="sans-serif" font-size="14" lengthAdjust="spacing" textLength="168" x="214" y="629.8857">employeeCount: Integer</text><line style="stroke:#181818;stroke-width:0.5;" x1="195" x2="387" y1="637.1875" y2="637.1875"/></g><!--class Measure--><g id="elem_Measure"><rect codeLine="10" fill="#F1F1F1" height="80.5938" id="Measure" rx="2.5" ry="2.5" style="stroke:#181818;stroke-width:0.5;" width="152" x="7" y="548"/><ellipse cx="49" cy="564" fill="#ADD1B2" rx="11" ry="11" style="stroke:#181818;stroke-width:1.0;"/><path d="M51.9688,569.6406 Q51.3906,569.9375 50.75,570.0781 Q50.1094,570.2344 49.4063,570.2344 Q46.9063,570.2344 45.5781,568.5938 Q44.2656,566.9375 44.2656,563.8125 Q44.2656,560.6875 45.5781,559.0313 Q46.9063,557.375 49.4063,557.375 Q50.1094,557.375 50.75,557.5313 Q51.4063,557.6875 51.9688,557.9844 L51.9688,560.7031 Q51.3438,560.125 50.75,559.8594 Q50.1563,559.5781 49.5313,559.5781 Q48.1875,559.5781 47.5,560.6563 Q46.8125,561.7188 46.8125,563.8125 Q46.8125,565.9063 47.5,566.9844 Q48.1875,568.0469 49.5313,568.0469 Q50.1563,568.0469 50.75,567.7813 Q51.3438,567.5 51.9688,566.9219 L51.9688,569.6406 Z " fill="#000000"/><text fill="#000000" font-family="sans-serif" font-size="14" lengthAdjust="spacing" textLength="60" x="69" y="568.8467">Measure</text><line style="stroke:#181818;stroke-width:0.5;" x1="8" x2="158" y1="580" y2="580"/><rect fill="none" height="6" style="stroke:#C82930;stroke-width:1.0;" width="6" x="15" y="590.6484"/><text fill="#000000" font-family="sans-serif" font-size="14" lengthAdjust="spacing" textLength="101" x="27" y="596.9951">measur: String</text><rect fill="none" height="6" style="stroke:#C82930;stroke-width:1.0;" width="6" x="15" y="606.9453"/><text fill="#000000" font-family="sans-serif" font-size="14" lengthAdjust="spacing" textLength="126" x="27" y="613.292">description: String</text><line style="stroke:#181818;stroke-width:0.5;" x1="8" x2="158" y1="620.5938" y2="620.5938"/></g><!--class Disease--><g id="elem_Disease"><rect codeLine="15" fill="#F1F1F1" height="113.1875" id="Disease" rx="2.5" ry="2.5" style="stroke:#181818;stroke-width:0.5;" width="160" x="74" y="269.5"/><ellipse cx="121.75" cy="285.5" fill="#ADD1B2" rx="11" ry="11" style="stroke:#181818;stroke-width:1.0;"/><path d="M124.7188,291.1406 Q124.1406,291.4375 123.5,291.5781 Q122.8594,291.7344 122.1563,291.7344 Q119.6563,291.7344 118.3281,290.0938 Q117.0156,288.4375 117.0156,285.3125 Q117.0156,282.1875 118.3281,280.5313 Q119.6563,278.875 122.1563,278.875 Q122.8594,278.875 123.5,279.0313 Q124.1563,279.1875 124.7188,279.4844 L124.7188,282.2031 Q124.0938,281.625 123.5,281.3594 Q122.9063,281.0781 122.2813,281.0781 Q120.9375,281.0781 120.25,282.1563 Q119.5625,283.2188 119.5625,285.3125 Q119.5625,287.4063 120.25,288.4844 Q120.9375,289.5469 122.2813,289.5469 Q122.9063,289.5469 123.5,289.2813 Q124.0938,289 124.7188,288.4219 L124.7188,291.1406 Z " fill="#000000"/><text fill="#000000" font-family="sans-serif" font-size="14" lengthAdjust="spacing" textLength="56" x="142.25" y="290.3467">Disease</text><line style="stroke:#181818;stroke-width:0.5;" x1="75" x2="233" y1="301.5" y2="301.5"/><rect fill="none" height="6" style="stroke:#C82930;stroke-width:1.0;" width="6" x="82" y="312.1484"/><text fill="#000000" font-family="sans-serif" font-size="14" lengthAdjust="spacing" textLength="84" x="94" y="318.4951">code: String</text><rect fill="none" height="6" style="stroke:#C82930;stroke-width:1.0;" width="6" x="82" y="328.4453"/><text fill="#000000" font-family="sans-serif" font-size="14" lengthAdjust="spacing" textLength="88" x="94" y="334.792">name: String</text><rect fill="none" height="6" style="stroke:#C82930;stroke-width:1.0;" width="6" x="82" y="344.7422"/><text fill="#000000" font-family="sans-serif" font-size="14" lengthAdjust="spacing" textLength="134" x="94" y="351.0889">measure : Measure</text><rect fill="none" height="6" style="stroke:#C82930;stroke-width:1.0;" width="6" x="82" y="361.0391"/><text fill="#000000" font-family="sans-serif" font-size="14" lengthAdjust="spacing" textLength="126" x="94" y="367.3857">description: String</text><line style="stroke:#181818;stroke-width:0.5;" x1="75" x2="233" y1="374.6875" y2="374.6875"/></g><!--class Gender--><g id="elem_Gender"><rect codeLine="22" fill="#F1F1F1" height="64.2969" id="Gender" rx="2.5" ry="2.5" style="stroke:#181818;stroke-width:0.5;" width="111" x="423.5" y="556.5"/><ellipse cx="450.65" cy="572.5" fill="#EB937F" rx="11" ry="11" style="stroke:#181818;stroke-width:1.0;"/><path d="M454.7594,578.5 L447.0406,578.5 L447.0406,566.1094 L454.7594,566.1094 L454.7594,568.2656 L449.4938,568.2656 L449.4938,570.9375 L454.2594,570.9375 L454.2594,573.0938 L449.4938,573.0938 L449.4938,576.3438 L454.7594,576.3438 L454.7594,578.5 Z " fill="#000000"/><text fill="#000000" font-family="sans-serif" font-size="14" lengthAdjust="spacing" textLength="52" x="467.35" y="577.3467">Gender</text><line style="stroke:#181818;stroke-width:0.5;" x1="424.5" x2="533.5" y1="588.5" y2="588.5"/><text fill="#000000" font-family="sans-serif" font-size="14" lengthAdjust="spacing" textLength="99" x="429.5" y="605.4951">MALE, FEMALE</text><line style="stroke:#181818;stroke-width:0.5;" x1="424.5" x2="533.5" y1="612.7969" y2="612.7969"/></g><!--class MarridationStatus--><g id="elem_MarridationStatus"><rect codeLine="26" fill="#F1F1F1" height="64.2969" id="MarridationStatus" rx="2.5" ry="2.5" style="stroke:#181818;stroke-width:0.5;" width="218" x="570" y="556.5"/><ellipse cx="614.75" cy="572.5" fill="#EB937F" rx="11" ry="11" style="stroke:#181818;stroke-width:1.0;"/><path d="M618.8594,578.5 L611.1406,578.5 L611.1406,566.1094 L618.8594,566.1094 L618.8594,568.2656 L613.5938,568.2656 L613.5938,570.9375 L618.3594,570.9375 L618.3594,573.0938 L613.5938,573.0938 L613.5938,576.3438 L618.8594,576.3438 L618.8594,578.5 Z " fill="#000000"/><text fill="#000000" font-family="sans-serif" font-size="14" lengthAdjust="spacing" textLength="120" x="635.25" y="577.3467">MarridationStatus</text><line style="stroke:#181818;stroke-width:0.5;" x1="571" x2="787" y1="588.5" y2="588.5"/><text fill="#000000" font-family="sans-serif" font-size="14" lengthAdjust="spacing" textLength="206" x="576" y="605.4951">SINGLE,MARRIDATE, DIVORCE</text><line style="stroke:#181818;stroke-width:0.5;" x1="571" x2="787" y1="612.7969" y2="612.7969"/></g><!--class Visited--><g id="elem_Visited"><rect codeLine="30" fill="#F1F1F1" height="292.4531" id="Visited" rx="2.5" ry="2.5" style="stroke:#181818;stroke-width:0.5;" width="276" x="305" y="180"/><ellipse cx="415.75" cy="196" fill="#ADD1B2" rx="11" ry="11" style="stroke:#181818;stroke-width:1.0;"/><path d="M418.7188,201.6406 Q418.1406,201.9375 417.5,202.0781 Q416.8594,202.2344 416.1563,202.2344 Q413.6563,202.2344 412.3281,200.5938 Q411.0156,198.9375 411.0156,195.8125 Q411.0156,192.6875 412.3281,191.0313 Q413.6563,189.375 416.1563,189.375 Q416.8594,189.375 417.5,189.5313 Q418.1563,189.6875 418.7188,189.9844 L418.7188,192.7031 Q418.0938,192.125 417.5,191.8594 Q416.9063,191.5781 416.2813,191.5781 Q414.9375,191.5781 414.25,192.6563 Q413.5625,193.7188 413.5625,195.8125 Q413.5625,197.9063 414.25,198.9844 Q414.9375,200.0469 416.2813,200.0469 Q416.9063,200.0469 417.5,199.7813 Q418.0938,199.5 418.7188,198.9219 L418.7188,201.6406 Z " fill="#000000"/><text fill="#000000" font-family="sans-serif" font-size="14" lengthAdjust="spacing" textLength="46" x="436.25" y="200.8467">Visited</text><line style="stroke:#181818;stroke-width:0.5;" x1="306" x2="580" y1="212" y2="212"/><rect fill="none" height="6" style="stroke:#C82930;stroke-width:1.0;" width="6" x="313" y="222.6484"/><text fill="#000000" font-family="sans-serif" font-size="14" lengthAdjust="spacing" textLength="113" x="325" y="228.9951">firstname: String</text><rect fill="none" height="6" style="stroke:#C82930;stroke-width:1.0;" width="6" x="313" y="238.9453"/><text fill="#000000" font-family="sans-serif" font-size="14" lengthAdjust="spacing" textLength="112" x="325" y="245.292">lastname: String</text><rect fill="none" height="6" style="stroke:#C82930;stroke-width:1.0;" width="6" x="313" y="255.2422"/><text fill="#000000" font-family="sans-serif" font-size="14" lengthAdjust="spacing" textLength="115" x="325" y="261.5889">nationalId: String</text><rect fill="none" height="6" style="stroke:#C82930;stroke-width:1.0;" width="6" x="313" y="271.5391"/><text fill="#000000" font-family="sans-serif" font-size="14" lengthAdjust="spacing" textLength="111" x="325" y="277.8857">gender: Gender</text><rect fill="none" height="6" style="stroke:#C82930;stroke-width:1.0;" width="6" x="313" y="287.8359"/><text fill="#000000" font-family="sans-serif" font-size="14" lengthAdjust="spacing" textLength="98" x="325" y="294.1826">birthday: Long</text><rect fill="none" height="6" style="stroke:#C82930;stroke-width:1.0;" width="6" x="313" y="304.1328"/><text fill="#000000" font-family="sans-serif" font-size="14" lengthAdjust="spacing" textLength="70" x="325" y="310.4795">job: String</text><rect fill="none" height="6" style="stroke:#C82930;stroke-width:1.0;" width="6" x="313" y="320.4297"/><text fill="#000000" font-family="sans-serif" font-size="14" lengthAdjust="spacing" textLength="118" x="325" y="326.7764">education: String</text><rect fill="none" height="6" style="stroke:#C82930;stroke-width:1.0;" width="6" x="313" y="336.7266"/><text fill="#000000" font-family="sans-serif" font-size="14" lengthAdjust="spacing" textLength="94" x="325" y="343.0732">phone: String</text><rect fill="none" height="6" style="stroke:#C82930;stroke-width:1.0;" width="6" x="313" y="353.0234"/><text fill="#000000" font-family="sans-serif" font-size="14" lengthAdjust="spacing" textLength="105" x="325" y="359.3701">address: String</text><rect fill="none" height="6" style="stroke:#C82930;stroke-width:1.0;" width="6" x="313" y="369.3203"/><text fill="#000000" font-family="sans-serif" font-size="14" lengthAdjust="spacing" textLength="250" x="325" y="375.667">marridationStatus: MarridationStatus</text><rect fill="none" height="6" style="stroke:#C82930;stroke-width:1.0;" width="6" x="313" y="385.6172"/><text fill="#000000" font-family="sans-serif" font-size="14" lengthAdjust="spacing" textLength="132" x="325" y="391.9639">childCount: Integer</text><rect fill="none" height="6" style="stroke:#C82930;stroke-width:1.0;" width="6" x="313" y="401.9141"/><text fill="#000000" font-family="sans-serif" font-size="14" lengthAdjust="spacing" textLength="107" x="325" y="408.2607">ethnicity: String</text><rect fill="none" height="6" style="stroke:#C82930;stroke-width:1.0;" width="6" x="313" y="418.2109"/><text fill="#000000" font-family="sans-serif" font-size="14" lengthAdjust="spacing" textLength="86" x="325" y="424.5576">height: Float</text><rect fill="none" height="6" style="stroke:#C82930;stroke-width:1.0;" width="6" x="313" y="434.5078"/><text fill="#000000" font-family="sans-serif" font-size="14" lengthAdjust="spacing" textLength="88" x="325" y="440.8545">weight: Float</text><rect fill="none" height="6" style="stroke:#C82930;stroke-width:1.0;" width="6" x="313" y="450.8047"/><text fill="#000000" font-family="sans-serif" font-size="14" lengthAdjust="spacing" textLength="181" x="325" y="457.1514">organization: Organization</text><line style="stroke:#181818;stroke-width:0.5;" x1="306" x2="580" y1="464.4531" y2="464.4531"/></g><!--class RelVisitedDisease--><g id="elem_RelVisitedDisease"><rect codeLine="48" fill="#F1F1F1" height="113.1875" id="RelVisitedDisease" rx="2.5" ry="2.5" style="stroke:#181818;stroke-width:0.5;" width="156" x="202" y="7"/><ellipse cx="217" cy="23" fill="#ADD1B2" rx="11" ry="11" style="stroke:#181818;stroke-width:1.0;"/><path d="M219.9688,28.6406 Q219.3906,28.9375 218.75,29.0781 Q218.1094,29.2344 217.4063,29.2344 Q214.9063,29.2344 213.5781,27.5938 Q212.2656,25.9375 212.2656,22.8125 Q212.2656,19.6875 213.5781,18.0313 Q214.9063,16.375 217.4063,16.375 Q218.1094,16.375 218.75,16.5313 Q219.4063,16.6875 219.9688,16.9844 L219.9688,19.7031 Q219.3438,19.125 218.75,18.8594 Q218.1563,18.5781 217.5313,18.5781 Q216.1875,18.5781 215.5,19.6563 Q214.8125,20.7188 214.8125,22.8125 Q214.8125,24.9063 215.5,25.9844 Q216.1875,27.0469 217.5313,27.0469 Q218.1563,27.0469 218.75,26.7813 Q219.3438,26.5 219.9688,25.9219 L219.9688,28.6406 Z " fill="#000000"/><text fill="#000000" font-family="sans-serif" font-size="14" lengthAdjust="spacing" textLength="124" x="231" y="27.8467">RelVisitedDisease</text><line style="stroke:#181818;stroke-width:0.5;" x1="203" x2="357" y1="39" y2="39"/><rect fill="none" height="6" style="stroke:#C82930;stroke-width:1.0;" width="6" x="210" y="49.6484"/><text fill="#000000" font-family="sans-serif" font-size="14" lengthAdjust="spacing" textLength="119" x="222" y="55.9951">disease: Disease</text><rect fill="none" height="6" style="stroke:#C82930;stroke-width:1.0;" width="6" x="210" y="65.9453"/><text fill="#000000" font-family="sans-serif" font-size="14" lengthAdjust="spacing" textLength="99" x="222" y="72.292">visited: Visited</text><rect fill="none" height="6" style="stroke:#C82930;stroke-width:1.0;" width="6" x="210" y="82.2422"/><text fill="#000000" font-family="sans-serif" font-size="14" lengthAdjust="spacing" textLength="104" x="222" y="88.5889">datetime: Long</text><rect fill="none" height="6" style="stroke:#C82930;stroke-width:1.0;" width="6" x="210" y="98.5391"/><text fill="#000000" font-family="sans-serif" font-size="14" lengthAdjust="spacing" textLength="78" x="222" y="104.8857">value: Float</text><line style="stroke:#181818;stroke-width:0.5;" x1="203" x2="357" y1="112.1875" y2="112.1875"/></g><!--link Disease to Measure--><g id="link_Disease_Measure"><path codeLine="55" d="M138.86,382.56 C125.33,432.17 107.4378,497.8312 95.4178,541.9312 " fill="none" id="Disease-to-Measure" style="stroke:#181818;stroke-width:1.0;"/><polygon fill="#181818" points="93.84,547.72,100.0659,540.0886,95.1548,542.896,92.3475,537.9849,93.84,547.72" style="stroke:#181818;stroke-width:1.0;"/><text fill="#000000" font-family="sans-serif" font-size="13" lengthAdjust="spacing" textLength="24" x="111.3827" y="402.8311">0..n</text><text fill="#000000" font-family="sans-serif" font-size="13" lengthAdjust="spacing" textLength="8" x="86.9729" y="536.8352">1</text></g><!--link Visited to Gender--><g id="link_Visited_Gender"><path codeLine="56" d="M463.05,472.1 C467.44,503.88 470.848,528.5166 473.848,550.2066 " fill="none" id="Visited-to-Gender" style="stroke:#181818;stroke-width:1.0;stroke-dasharray:7.0,7.0;"/><polygon fill="#181818" points="474.67,556.15,477.3992,546.6868,473.985,551.1972,469.4746,547.7829,474.67,556.15" style="stroke:#181818;stroke-width:1.0;"/><text fill="#000000" font-family="sans-serif" font-size="13" lengthAdjust="spacing" textLength="24" x="439.4902" y="492.5581">0..n</text><text fill="#000000" font-family="sans-serif" font-size="13" lengthAdjust="spacing" textLength="8" x="465.03" y="545.3553">1</text></g><!--link Visited to MarridationStatus--><g id="link_Visited_MarridationStatus"><path codeLine="57" d="M574.46,472.1 C603.24,503.88 626.9216,530.0134 646.5716,551.7034 " fill="none" id="Visited-to-MarridationStatus" style="stroke:#181818;stroke-width:1.0;stroke-dasharray:7.0,7.0;"/><polygon fill="#181818" points="650.6,556.15,647.5218,546.7945,647.243,552.4445,641.593,552.1657,650.6,556.15" style="stroke:#181818;stroke-width:1.0;"/><text fill="#000000" font-family="sans-serif" font-size="13" lengthAdjust="spacing" textLength="24" x="556.993" y="492.5581">0..n</text><text fill="#000000" font-family="sans-serif" font-size="13" lengthAdjust="spacing" textLength="8" x="636.2213" y="545.3553">1</text></g><!--link Visited to Organization--><g id="link_Visited_Organization"><path codeLine="58" d="M358.33,472.1 C345.93,493.37 336.852,508.9066 326.422,526.7966 " fill="none" id="Visited-to-Organization" style="stroke:#181818;stroke-width:1.0;"/><polygon fill="#181818" points="323.4,531.98,331.3886,526.2195,325.9183,527.6605,324.4773,522.1902,323.4,531.98" style="stroke:#181818;stroke-width:1.0;"/><text fill="#000000" font-family="sans-serif" font-size="13" lengthAdjust="spacing" textLength="24" x="329.0434" y="492.5581">0..n</text><text fill="#000000" font-family="sans-serif" font-size="13" lengthAdjust="spacing" textLength="8" x="319.0388" y="520.8408">1</text></g><!--link RelVisitedDisease to Visited--><g id="link_RelVisitedDisease_Visited"><path codeLine="59" d="M314.77,120.06 C325.94,137.92 335.697,153.5239 348.977,174.7439 " fill="none" id="RelVisitedDisease-to-Visited" style="stroke:#181818;stroke-width:1.0;"/><polygon fill="#181818" points="352.16,179.83,350.7762,170.0788,349.5075,175.5916,343.9948,174.3229,352.16,179.83" style="stroke:#181818;stroke-width:1.0;"/><text fill="#000000" font-family="sans-serif" font-size="13" lengthAdjust="spacing" textLength="24" x="293.6874" y="140.3311">0..n</text><text fill="#000000" font-family="sans-serif" font-size="13" lengthAdjust="spacing" textLength="8" x="339.2698" y="168.965">0</text></g><!--link RelVisitedDisease to Disease--><g id="link_RelVisitedDisease_Disease"><path codeLine="60" d="M253.12,120.06 C231.88,164 204.9634,219.649 183.6634,263.669 " fill="none" id="RelVisitedDisease-to-Disease" style="stroke:#181818;stroke-width:1.0;"/><polygon fill="#181818" points="181.05,269.07,188.5707,262.7108,183.2278,264.5692,181.3694,259.2263,181.05,269.07" style="stroke:#181818;stroke-width:1.0;"/><text fill="#000000" font-family="sans-serif" font-size="13" lengthAdjust="spacing" textLength="24" x="224.1385" y="140.3311">0..n</text><text fill="#000000" font-family="sans-serif" font-size="13" lengthAdjust="spacing" textLength="8" x="175.8592" y="258.2812">0</text></g><!--SRC=[ZLBBReCm4Bpp5HRd9aglFbIAyX9IQ2HIvUxWBMm5Dh9DghJAlvTWcmH8rN917ezdPsStBPZMPASo9l2B6PJYEo3DDn6i14hsHg78B5BbSWWnpXLetGUXh0fv1bZ8MXXA8c4W0nLSWY18ssenC5qh8AvIsHwz1h4W1vqghAw6ElMB5rYYRjvq0YIL70RloTW_ALrTwXqu_9TQ8EgIR41mKBPGFD-kdiXwTVrtX9WfXRnDRc-OgRNbxgFNJSEEvqaIBUTlpRjbTDWbYzMjYmDgDC1T4- -ej1cRRfWFKD7MOqN4-tZMkgNEjSMEg4pEsPcIhVIy3taSp8pNAUi5u4Sk_ZFoSXW27UTYcMcE1HziXdLWSe4fcdDVEGVCyeQxBYGp5leSG_9kVsblcszn9r2unDtwkE2vFL6_LHOzMIhrKt9SPi3WTHgtB4-igC6xQQhvvGndqwa89vENy3di5iwfkSkflNJJUdWtZh5FS_gzbaUTtd5dOTVH7pG7_W00]--></g></svg>