<?xml version="1.0" encoding="us-ascii" standalone="no"?><svg xmlns="http://www.w3.org/2000/svg" xmlns:xlink="http://www.w3.org/1999/xlink" contentStyleType="text/css" height="652px" preserveAspectRatio="none" style="width:1529px;height:652px;background:#FFFFFF;" version="1.1" viewBox="0 0 1529 652" width="1529px" zoomAndPan="magnify"><defs/><g><!--class Gender--><g id="elem_Gender"><rect codeLine="1" fill="#F1F1F1" height="64.2969" id="Gender" rx="2.5" ry="2.5" style="stroke:#181818;stroke-width:0.5;" width="111" x="208" y="556.5"/><ellipse cx="235.15" cy="572.5" fill="#EB937F" rx="11" ry="11" style="stroke:#181818;stroke-width:1.0;"/><path d="M239.2594,578.5 L231.5406,578.5 L231.5406,566.1094 L239.2594,566.1094 L239.2594,568.2656 L233.9938,568.2656 L233.9938,570.9375 L238.7594,570.9375 L238.7594,573.0938 L233.9938,573.0938 L233.9938,576.3438 L239.2594,576.3438 L239.2594,578.5 Z " fill="#000000"/><text fill="#000000" font-family="sans-serif" font-size="14" lengthAdjust="spacing" textLength="52" x="251.85" y="577.3467">Gender</text><line style="stroke:#181818;stroke-width:0.5;" x1="209" x2="318" y1="588.5" y2="588.5"/><text fill="#000000" font-family="sans-serif" font-size="14" lengthAdjust="spacing" textLength="99" x="214" y="605.4951">MALE, FEMALE</text><line style="stroke:#181818;stroke-width:0.5;" x1="209" x2="318" y1="612.7969" y2="612.7969"/></g><!--class MarridationStatus--><g id="elem_MarridationStatus"><rect codeLine="5" fill="#F1F1F1" height="64.2969" id="MarridationStatus" rx="2.5" ry="2.5" style="stroke:#181818;stroke-width:0.5;" width="218" x="354.5" y="556.5"/><ellipse cx="399.25" cy="572.5" fill="#EB937F" rx="11" ry="11" style="stroke:#181818;stroke-width:1.0;"/><path d="M403.3594,578.5 L395.6406,578.5 L395.6406,566.1094 L403.3594,566.1094 L403.3594,568.2656 L398.0938,568.2656 L398.0938,570.9375 L402.8594,570.9375 L402.8594,573.0938 L398.0938,573.0938 L398.0938,576.3438 L403.3594,576.3438 L403.3594,578.5 Z " fill="#000000"/><text fill="#000000" font-family="sans-serif" font-size="14" lengthAdjust="spacing" textLength="120" x="419.75" y="577.3467">MarridationStatus</text><line style="stroke:#181818;stroke-width:0.5;" x1="355.5" x2="571.5" y1="588.5" y2="588.5"/><text fill="#000000" font-family="sans-serif" font-size="14" lengthAdjust="spacing" textLength="206" x="360.5" y="605.4951">SINGLE,MARRIDATE, DIVORCE</text><line style="stroke:#181818;stroke-width:0.5;" x1="355.5" x2="571.5" y1="612.7969" y2="612.7969"/></g><!--class MilitaryStatus--><g id="elem_MilitaryStatus"><rect codeLine="9" fill="#F1F1F1" height="113.1875" id="MilitaryStatus" rx="2.5" ry="2.5" style="stroke:#181818;stroke-width:0.5;" width="686" x="607.5" y="532"/><ellipse cx="901.25" cy="548" fill="#EB937F" rx="11" ry="11" style="stroke:#181818;stroke-width:1.0;"/><path d="M905.3594,554 L897.6406,554 L897.6406,541.6094 L905.3594,541.6094 L905.3594,543.7656 L900.0938,543.7656 L900.0938,546.4375 L904.8594,546.4375 L904.8594,548.5938 L900.0938,548.5938 L900.0938,551.8438 L905.3594,551.8438 L905.3594,554 Z " fill="#000000"/><text fill="#000000" font-family="sans-serif" font-size="14" lengthAdjust="spacing" textLength="90" x="921.75" y="552.8467">MilitaryStatus</text><line style="stroke:#181818;stroke-width:0.5;" x1="608.5" x2="1292.5" y1="564" y2="564"/><text fill="#000000" font-family="sans-serif" font-size="14" lengthAdjust="spacing" textLength="588" x="613.5" y="580.9951">DONE,MEDICAL_EXEMPTION, SPONSORSHIP_EXEMPTION, EDUCATIONAL_EXEMPTION,</text><text fill="#000000" font-family="sans-serif" font-size="14" lengthAdjust="spacing" textLength="623" x="613.5" y="597.292">LEADERSHIP_AMNESTY ,EXEMPTION_SPECIAL ,HEAD_HOUSEHOLD_DISABILITYEXEMPTION ,</text><text fill="#000000" font-family="sans-serif" font-size="14" lengthAdjust="spacing" textLength="674" x="613.5" y="613.5889">SPECIAL_CASES_EXEMPTION ,SELF_SACRIFICE_EXEMPTION ,THREE_BROTHERHOOD_EXEMPTION ,</text><text fill="#000000" font-family="sans-serif" font-size="14" lengthAdjust="spacing" textLength="465" x="613.5" y="629.8857">ELITE_SUPERIOR_TALENT_EXEMPTION ,OTHER_EXEMPTION, OTHER</text><line style="stroke:#181818;stroke-width:0.5;" x1="608.5" x2="1292.5" y1="637.1875" y2="637.1875"/></g><!--class Organization--><g id="elem_Organization"><rect codeLine="16" fill="#F1F1F1" height="113.1875" id="Organization" rx="2.5" ry="2.5" style="stroke:#181818;stroke-width:0.5;" width="194" x="1328.5" y="532"/><ellipse cx="1377.75" cy="548" fill="#ADD1B2" rx="11" ry="11" style="stroke:#181818;stroke-width:1.0;"/><path d="M1380.7188,553.6406 Q1380.1406,553.9375 1379.5,554.0781 Q1378.8594,554.2344 1378.1563,554.2344 Q1375.6563,554.2344 1374.3281,552.5938 Q1373.0156,550.9375 1373.0156,547.8125 Q1373.0156,544.6875 1374.3281,543.0313 Q1375.6563,541.375 1378.1563,541.375 Q1378.8594,541.375 1379.5,541.5313 Q1380.1563,541.6875 1380.7188,541.9844 L1380.7188,544.7031 Q1380.0938,544.125 1379.5,543.8594 Q1378.9063,543.5781 1378.2813,543.5781 Q1376.9375,543.5781 1376.25,544.6563 Q1375.5625,545.7188 1375.5625,547.8125 Q1375.5625,549.9063 1376.25,550.9844 Q1376.9375,552.0469 1378.2813,552.0469 Q1378.9063,552.0469 1379.5,551.7813 Q1380.0938,551.5 1380.7188,550.9219 L1380.7188,553.6406 Z " fill="#000000"/><text fill="#000000" font-family="sans-serif" font-size="14" lengthAdjust="spacing" textLength="87" x="1398.25" y="552.8467">Organization</text><line style="stroke:#181818;stroke-width:0.5;" x1="1329.5" x2="1521.5" y1="564" y2="564"/><rect fill="none" height="6" style="stroke:#C82930;stroke-width:1.0;" width="6" x="1336.5" y="574.6484"/><text fill="#000000" font-family="sans-serif" font-size="14" lengthAdjust="spacing" textLength="88" x="1348.5" y="580.9951">name: String</text><rect fill="none" height="6" style="stroke:#C82930;stroke-width:1.0;" width="6" x="1336.5" y="590.9453"/><text fill="#000000" font-family="sans-serif" font-size="14" lengthAdjust="spacing" textLength="98" x="1348.5" y="597.292">phome: String</text><rect fill="none" height="6" style="stroke:#C82930;stroke-width:1.0;" width="6" x="1336.5" y="607.2422"/><text fill="#000000" font-family="sans-serif" font-size="14" lengthAdjust="spacing" textLength="105" x="1348.5" y="613.5889">address: String</text><rect fill="none" height="6" style="stroke:#C82930;stroke-width:1.0;" width="6" x="1336.5" y="623.5391"/><text fill="#000000" font-family="sans-serif" font-size="14" lengthAdjust="spacing" textLength="168" x="1348.5" y="629.8857">employeeCount: Integer</text><line style="stroke:#181818;stroke-width:0.5;" x1="1329.5" x2="1521.5" y1="637.1875" y2="637.1875"/></g><!--class Job--><g id="elem_Job"><rect codeLine="23" fill="#F1F1F1" height="113.1875" id="Job" rx="2.5" ry="2.5" style="stroke:#181818;stroke-width:0.5;" width="207" x="979" y="277.5"/><ellipse cx="1067.75" cy="293.5" fill="#ADD1B2" rx="11" ry="11" style="stroke:#181818;stroke-width:1.0;"/><path d="M1070.7188,299.1406 Q1070.1406,299.4375 1069.5,299.5781 Q1068.8594,299.7344 1068.1563,299.7344 Q1065.6563,299.7344 1064.3281,298.0938 Q1063.0156,296.4375 1063.0156,293.3125 Q1063.0156,290.1875 1064.3281,288.5313 Q1065.6563,286.875 1068.1563,286.875 Q1068.8594,286.875 1069.5,287.0313 Q1070.1563,287.1875 1070.7188,287.4844 L1070.7188,290.2031 Q1070.0938,289.625 1069.5,289.3594 Q1068.9063,289.0781 1068.2813,289.0781 Q1066.9375,289.0781 1066.25,290.1563 Q1065.5625,291.2188 1065.5625,293.3125 Q1065.5625,295.4063 1066.25,296.4844 Q1066.9375,297.5469 1068.2813,297.5469 Q1068.9063,297.5469 1069.5,297.2813 Q1070.0938,297 1070.7188,296.4219 L1070.7188,299.1406 Z " fill="#000000"/><text fill="#000000" font-family="sans-serif" font-size="14" lengthAdjust="spacing" textLength="21" x="1088.25" y="298.3467">Job</text><line style="stroke:#181818;stroke-width:0.5;" x1="980" x2="1185" y1="309.5" y2="309.5"/><rect fill="none" height="6" style="stroke:#C82930;stroke-width:1.0;" width="6" x="987" y="320.1484"/><text fill="#000000" font-family="sans-serif" font-size="14" lengthAdjust="spacing" textLength="181" x="999" y="326.4951">organization: Organization</text><rect fill="none" height="6" style="stroke:#C82930;stroke-width:1.0;" width="6" x="987" y="336.4453"/><text fill="#000000" font-family="sans-serif" font-size="14" lengthAdjust="spacing" textLength="74" x="999" y="342.792">title: String</text><rect fill="none" height="6" style="stroke:#C82930;stroke-width:1.0;" width="6" x="987" y="352.7422"/><text fill="#000000" font-family="sans-serif" font-size="14" lengthAdjust="spacing" textLength="75" x="999" y="359.0889">parent: Job</text><rect fill="none" height="6" style="stroke:#C82930;stroke-width:1.0;" width="6" x="987" y="369.0391"/><text fill="#000000" font-family="sans-serif" font-size="14" lengthAdjust="spacing" textLength="126" x="999" y="375.3857">description: String</text><line style="stroke:#181818;stroke-width:0.5;" x1="980" x2="1185" y1="382.6875" y2="382.6875"/></g><!--class Measure--><g id="elem_Measure"><rect codeLine="30" fill="#F1F1F1" height="80.5938" id="Measure" rx="2.5" ry="2.5" style="stroke:#181818;stroke-width:0.5;" width="152" x="20.5" y="548"/><ellipse cx="62.5" cy="564" fill="#ADD1B2" rx="11" ry="11" style="stroke:#181818;stroke-width:1.0;"/><path d="M65.4688,569.6406 Q64.8906,569.9375 64.25,570.0781 Q63.6094,570.2344 62.9063,570.2344 Q60.4063,570.2344 59.0781,568.5938 Q57.7656,566.9375 57.7656,563.8125 Q57.7656,560.6875 59.0781,559.0313 Q60.4063,557.375 62.9063,557.375 Q63.6094,557.375 64.25,557.5313 Q64.9063,557.6875 65.4688,557.9844 L65.4688,560.7031 Q64.8438,560.125 64.25,559.8594 Q63.6563,559.5781 63.0313,559.5781 Q61.6875,559.5781 61,560.6563 Q60.3125,561.7188 60.3125,563.8125 Q60.3125,565.9063 61,566.9844 Q61.6875,568.0469 63.0313,568.0469 Q63.6563,568.0469 64.25,567.7813 Q64.8438,567.5 65.4688,566.9219 L65.4688,569.6406 Z " fill="#000000"/><text fill="#000000" font-family="sans-serif" font-size="14" lengthAdjust="spacing" textLength="60" x="82.5" y="568.8467">Measure</text><line style="stroke:#181818;stroke-width:0.5;" x1="21.5" x2="171.5" y1="580" y2="580"/><rect fill="none" height="6" style="stroke:#C82930;stroke-width:1.0;" width="6" x="28.5" y="590.6484"/><text fill="#000000" font-family="sans-serif" font-size="14" lengthAdjust="spacing" textLength="101" x="40.5" y="596.9951">measur: String</text><rect fill="none" height="6" style="stroke:#C82930;stroke-width:1.0;" width="6" x="28.5" y="606.9453"/><text fill="#000000" font-family="sans-serif" font-size="14" lengthAdjust="spacing" textLength="126" x="40.5" y="613.292">description: String</text><line style="stroke:#181818;stroke-width:0.5;" x1="21.5" x2="171.5" y1="620.5938" y2="620.5938"/></g><!--class MedicalCheckUpsease--><g id="elem_MedicalCheckUpsease"><rect codeLine="35" fill="#F1F1F1" height="162.0781" id="MedicalCheckUpsease" rx="2.5" ry="2.5" style="stroke:#181818;stroke-width:0.5;" width="237" x="7" y="253"/><ellipse cx="43.6" cy="269" fill="#ADD1B2" rx="11" ry="11" style="stroke:#181818;stroke-width:1.0;"/><path d="M46.5688,274.6406 Q45.9906,274.9375 45.35,275.0781 Q44.7094,275.2344 44.0063,275.2344 Q41.5063,275.2344 40.1781,273.5938 Q38.8656,271.9375 38.8656,268.8125 Q38.8656,265.6875 40.1781,264.0313 Q41.5063,262.375 44.0063,262.375 Q44.7094,262.375 45.35,262.5313 Q46.0063,262.6875 46.5688,262.9844 L46.5688,265.7031 Q45.9438,265.125 45.35,264.8594 Q44.7563,264.5781 44.1313,264.5781 Q42.7875,264.5781 42.1,265.6563 Q41.4125,266.7188 41.4125,268.8125 Q41.4125,270.9063 42.1,271.9844 Q42.7875,273.0469 44.1313,273.0469 Q44.7563,273.0469 45.35,272.7813 Q45.9438,272.5 46.5688,271.9219 L46.5688,274.6406 Z " fill="#000000"/><text fill="#000000" font-family="sans-serif" font-size="14" lengthAdjust="spacing" textLength="157" x="62.4" y="273.8467">MedicalCheckUpsease</text><line style="stroke:#181818;stroke-width:0.5;" x1="8" x2="243" y1="285" y2="285"/><rect fill="none" height="6" style="stroke:#C82930;stroke-width:1.0;" width="6" x="15" y="295.6484"/><text fill="#000000" font-family="sans-serif" font-size="14" lengthAdjust="spacing" textLength="84" x="27" y="301.9951">code: String</text><rect fill="none" height="6" style="stroke:#C82930;stroke-width:1.0;" width="6" x="15" y="311.9453"/><text fill="#000000" font-family="sans-serif" font-size="14" lengthAdjust="spacing" textLength="211" x="27" y="318.292">parent: MedicalCheckUpsease</text><rect fill="none" height="6" style="stroke:#C82930;stroke-width:1.0;" width="6" x="15" y="328.2422"/><text fill="#000000" font-family="sans-serif" font-size="14" lengthAdjust="spacing" textLength="88" x="27" y="334.5889">name: String</text><rect fill="none" height="6" style="stroke:#C82930;stroke-width:1.0;" width="6" x="15" y="344.5391"/><text fill="#000000" font-family="sans-serif" font-size="14" lengthAdjust="spacing" textLength="134" x="27" y="350.8857">measure : Measure</text><rect fill="none" height="6" style="stroke:#C82930;stroke-width:1.0;" width="6" x="15" y="360.8359"/><text fill="#000000" font-family="sans-serif" font-size="14" lengthAdjust="spacing" textLength="117" x="27" y="367.1826">maxMeasur: float</text><rect fill="none" height="6" style="stroke:#C82930;stroke-width:1.0;" width="6" x="15" y="377.1328"/><text fill="#000000" font-family="sans-serif" font-size="14" lengthAdjust="spacing" textLength="114" x="27" y="383.4795">minMeasur: float</text><rect fill="none" height="6" style="stroke:#C82930;stroke-width:1.0;" width="6" x="15" y="393.4297"/><text fill="#000000" font-family="sans-serif" font-size="14" lengthAdjust="spacing" textLength="126" x="27" y="399.7764">description: String</text><line style="stroke:#181818;stroke-width:0.5;" x1="8" x2="243" y1="407.0781" y2="407.0781"/></g><!--class Visited--><g id="elem_Visited"><rect codeLine="46" fill="#F1F1F1" height="276.1563" id="Visited" rx="2.5" ry="2.5" style="stroke:#181818;stroke-width:0.5;" width="276" x="325.5" y="196"/><ellipse cx="436.25" cy="212" fill="#ADD1B2" rx="11" ry="11" style="stroke:#181818;stroke-width:1.0;"/><path d="M439.2188,217.6406 Q438.6406,217.9375 438,218.0781 Q437.3594,218.2344 436.6563,218.2344 Q434.1563,218.2344 432.8281,216.5938 Q431.5156,214.9375 431.5156,211.8125 Q431.5156,208.6875 432.8281,207.0313 Q434.1563,205.375 436.6563,205.375 Q437.3594,205.375 438,205.5313 Q438.6563,205.6875 439.2188,205.9844 L439.2188,208.7031 Q438.5938,208.125 438,207.8594 Q437.4063,207.5781 436.7813,207.5781 Q435.4375,207.5781 434.75,208.6563 Q434.0625,209.7188 434.0625,211.8125 Q434.0625,213.9063 434.75,214.9844 Q435.4375,216.0469 436.7813,216.0469 Q437.4063,216.0469 438,215.7813 Q438.5938,215.5 439.2188,214.9219 L439.2188,217.6406 Z " fill="#000000"/><text fill="#000000" font-family="sans-serif" font-size="14" lengthAdjust="spacing" textLength="46" x="456.75" y="216.8467">Visited</text><line style="stroke:#181818;stroke-width:0.5;" x1="326.5" x2="600.5" y1="228" y2="228"/><rect fill="none" height="6" style="stroke:#C82930;stroke-width:1.0;" width="6" x="333.5" y="238.6484"/><text fill="#000000" font-family="sans-serif" font-size="14" lengthAdjust="spacing" textLength="113" x="345.5" y="244.9951">firstname: String</text><rect fill="none" height="6" style="stroke:#C82930;stroke-width:1.0;" width="6" x="333.5" y="254.9453"/><text fill="#000000" font-family="sans-serif" font-size="14" lengthAdjust="spacing" textLength="112" x="345.5" y="261.292">lastname: String</text><rect fill="none" height="6" style="stroke:#C82930;stroke-width:1.0;" width="6" x="333.5" y="271.2422"/><text fill="#000000" font-family="sans-serif" font-size="14" lengthAdjust="spacing" textLength="115" x="345.5" y="277.5889">nationalId: String</text><rect fill="none" height="6" style="stroke:#C82930;stroke-width:1.0;" width="6" x="333.5" y="287.5391"/><text fill="#000000" font-family="sans-serif" font-size="14" lengthAdjust="spacing" textLength="190" x="345.5" y="293.8857">militaryStatus: MilitaryStatus</text><rect fill="none" height="6" style="stroke:#C82930;stroke-width:1.0;" width="6" x="333.5" y="303.8359"/><text fill="#000000" font-family="sans-serif" font-size="14" lengthAdjust="spacing" textLength="111" x="345.5" y="310.1826">gender: Gender</text><rect fill="none" height="6" style="stroke:#C82930;stroke-width:1.0;" width="6" x="333.5" y="320.1328"/><text fill="#000000" font-family="sans-serif" font-size="14" lengthAdjust="spacing" textLength="98" x="345.5" y="326.4795">birthday: Long</text><rect fill="none" height="6" style="stroke:#C82930;stroke-width:1.0;" width="6" x="333.5" y="336.4297"/><text fill="#000000" font-family="sans-serif" font-size="14" lengthAdjust="spacing" textLength="118" x="345.5" y="342.7764">education: String</text><rect fill="none" height="6" style="stroke:#C82930;stroke-width:1.0;" width="6" x="333.5" y="352.7266"/><text fill="#000000" font-family="sans-serif" font-size="14" lengthAdjust="spacing" textLength="94" x="345.5" y="359.0732">phone: String</text><rect fill="none" height="6" style="stroke:#C82930;stroke-width:1.0;" width="6" x="333.5" y="369.0234"/><text fill="#000000" font-family="sans-serif" font-size="14" lengthAdjust="spacing" textLength="105" x="345.5" y="375.3701">address: String</text><rect fill="none" height="6" style="stroke:#C82930;stroke-width:1.0;" width="6" x="333.5" y="385.3203"/><text fill="#000000" font-family="sans-serif" font-size="14" lengthAdjust="spacing" textLength="250" x="345.5" y="391.667">marridationStatus: MarridationStatus</text><rect fill="none" height="6" style="stroke:#C82930;stroke-width:1.0;" width="6" x="333.5" y="401.6172"/><text fill="#000000" font-family="sans-serif" font-size="14" lengthAdjust="spacing" textLength="132" x="345.5" y="407.9639">childCount: Integer</text><rect fill="none" height="6" style="stroke:#C82930;stroke-width:1.0;" width="6" x="333.5" y="417.9141"/><text fill="#000000" font-family="sans-serif" font-size="14" lengthAdjust="spacing" textLength="107" x="345.5" y="424.2607">ethnicity: String</text><rect fill="none" height="6" style="stroke:#C82930;stroke-width:1.0;" width="6" x="333.5" y="434.2109"/><text fill="#000000" font-family="sans-serif" font-size="14" lengthAdjust="spacing" textLength="86" x="345.5" y="440.5576">height: Float</text><rect fill="none" height="6" style="stroke:#C82930;stroke-width:1.0;" width="6" x="333.5" y="450.5078"/><text fill="#000000" font-family="sans-serif" font-size="14" lengthAdjust="spacing" textLength="88" x="345.5" y="456.8545">weight: Float</text><line style="stroke:#181818;stroke-width:0.5;" x1="326.5" x2="600.5" y1="464.1563" y2="464.1563"/></g><!--class RelVisitedMedicalCheckUpsease--><g id="elem_RelVisitedMedicalCheckUpsease"><rect codeLine="63" fill="#F1F1F1" height="113.1875" id="RelVisitedMedicalCheckUpsease" rx="2.5" ry="2.5" style="stroke:#181818;stroke-width:0.5;" width="341" x="139" y="15"/><ellipse cx="192.75" cy="31" fill="#ADD1B2" rx="11" ry="11" style="stroke:#181818;stroke-width:1.0;"/><path d="M195.7188,36.6406 Q195.1406,36.9375 194.5,37.0781 Q193.8594,37.2344 193.1563,37.2344 Q190.6563,37.2344 189.3281,35.5938 Q188.0156,33.9375 188.0156,30.8125 Q188.0156,27.6875 189.3281,26.0313 Q190.6563,24.375 193.1563,24.375 Q193.8594,24.375 194.5,24.5313 Q195.1563,24.6875 195.7188,24.9844 L195.7188,27.7031 Q195.0938,27.125 194.5,26.8594 Q193.9063,26.5781 193.2813,26.5781 Q191.9375,26.5781 191.25,27.6563 Q190.5625,28.7188 190.5625,30.8125 Q190.5625,32.9063 191.25,33.9844 Q191.9375,35.0469 193.2813,35.0469 Q193.9063,35.0469 194.5,34.7813 Q195.0938,34.5 195.7188,33.9219 L195.7188,36.6406 Z " fill="#000000"/><text fill="#000000" font-family="sans-serif" font-size="14" lengthAdjust="spacing" textLength="225" x="213.25" y="35.8467">RelVisitedMedicalCheckUpsease</text><line style="stroke:#181818;stroke-width:0.5;" x1="140" x2="479" y1="47" y2="47"/><rect fill="none" height="6" style="stroke:#C82930;stroke-width:1.0;" width="6" x="147" y="57.6484"/><text fill="#000000" font-family="sans-serif" font-size="14" lengthAdjust="spacing" textLength="315" x="159" y="63.9951">mdicalCheckUpsease: MedicalCheckUpsease</text><rect fill="none" height="6" style="stroke:#C82930;stroke-width:1.0;" width="6" x="147" y="73.9453"/><text fill="#000000" font-family="sans-serif" font-size="14" lengthAdjust="spacing" textLength="99" x="159" y="80.292">visited: Visited</text><rect fill="none" height="6" style="stroke:#C82930;stroke-width:1.0;" width="6" x="147" y="90.2422"/><text fill="#000000" font-family="sans-serif" font-size="14" lengthAdjust="spacing" textLength="104" x="159" y="96.5889">datetime: Long</text><rect fill="none" height="6" style="stroke:#C82930;stroke-width:1.0;" width="6" x="147" y="106.5391"/><text fill="#000000" font-family="sans-serif" font-size="14" lengthAdjust="spacing" textLength="78" x="159" y="112.8857">value: Float</text><line style="stroke:#181818;stroke-width:0.5;" x1="140" x2="479" y1="120.1875" y2="120.1875"/></g><!--class RelVisitedJob--><g id="elem_RelVisitedJob"><rect codeLine="70" fill="#F1F1F1" height="129.4844" id="RelVisitedJob" rx="2.5" ry="2.5" style="stroke:#181818;stroke-width:0.5;" width="203" x="516" y="7"/><ellipse cx="568.75" cy="23" fill="#ADD1B2" rx="11" ry="11" style="stroke:#181818;stroke-width:1.0;"/><path d="M571.7188,28.6406 Q571.1406,28.9375 570.5,29.0781 Q569.8594,29.2344 569.1563,29.2344 Q566.6563,29.2344 565.3281,27.5938 Q564.0156,25.9375 564.0156,22.8125 Q564.0156,19.6875 565.3281,18.0313 Q566.6563,16.375 569.1563,16.375 Q569.8594,16.375 570.5,16.5313 Q571.1563,16.6875 571.7188,16.9844 L571.7188,19.7031 Q571.0938,19.125 570.5,18.8594 Q569.9063,18.5781 569.2813,18.5781 Q567.9375,18.5781 567.25,19.6563 Q566.5625,20.7188 566.5625,22.8125 Q566.5625,24.9063 567.25,25.9844 Q567.9375,27.0469 569.2813,27.0469 Q569.9063,27.0469 570.5,26.7813 Q571.0938,26.5 571.7188,25.9219 L571.7188,28.6406 Z " fill="#000000"/><text fill="#000000" font-family="sans-serif" font-size="14" lengthAdjust="spacing" textLength="89" x="589.25" y="27.8467">RelVisitedJob</text><line style="stroke:#181818;stroke-width:0.5;" x1="517" x2="718" y1="39" y2="39"/><rect fill="none" height="6" style="stroke:#C82930;stroke-width:1.0;" width="6" x="524" y="49.6484"/><text fill="#000000" font-family="sans-serif" font-size="14" lengthAdjust="spacing" textLength="51" x="536" y="55.9951">job: Job</text><rect fill="none" height="6" style="stroke:#C82930;stroke-width:1.0;" width="6" x="524" y="65.9453"/><text fill="#000000" font-family="sans-serif" font-size="14" lengthAdjust="spacing" textLength="177" x="536" y="72.292">workingConditions: String</text><rect fill="none" height="6" style="stroke:#C82930;stroke-width:1.0;" width="6" x="524" y="82.2422"/><text fill="#000000" font-family="sans-serif" font-size="14" lengthAdjust="spacing" textLength="148" x="536" y="88.5889">hasProblem: Boolean</text><rect fill="none" height="6" style="stroke:#C82930;stroke-width:1.0;" width="6" x="524" y="98.5391"/><text fill="#000000" font-family="sans-serif" font-size="14" lengthAdjust="spacing" textLength="99" x="536" y="104.8857">visited: Visited</text><rect fill="none" height="6" style="stroke:#C82930;stroke-width:1.0;" width="6" x="524" y="114.8359"/><text fill="#000000" font-family="sans-serif" font-size="14" lengthAdjust="spacing" textLength="104" x="536" y="121.1826">datetime: Long</text><line style="stroke:#181818;stroke-width:0.5;" x1="517" x2="718" y1="128.4844" y2="128.4844"/></g><!--link MedicalCheckUpsease to Measure--><g id="link_MedicalCheckUpsease_Measure"><path codeLine="78" d="M116.28,415.24 C111.21,459.43 105.8135,506.3691 101.7535,541.7791 " fill="none" id="MedicalCheckUpsease-to-Measure" style="stroke:#181818;stroke-width:1.0;"/><polygon fill="#181818" points="101.07,547.74,106.0692,539.2542,101.6396,542.7725,98.1212,538.3429,101.07,547.74" style="stroke:#181818;stroke-width:1.0;"/><text fill="#000000" font-family="sans-serif" font-size="13" lengthAdjust="spacing" textLength="24" x="90.3901" y="435.2127">0..n</text><text fill="#000000" font-family="sans-serif" font-size="13" lengthAdjust="spacing" textLength="8" x="93.1644" y="536.8585">1</text></g><!--link MedicalCheckUpsease to MedicalCheckUpsease--><g id="link_MedicalCheckUpsease_MedicalCheckUpsease"><path codeLine="79" d="M244.25,289.45 C264.76,295.46 279,310.31 279,334 C279,357.69 270.5179,370.8528 250.0079,376.8628 " fill="none" id="MedicalCheckUpsease-to-MedicalCheckUpsease" style="stroke:#181818;stroke-width:1.0;"/><polygon fill="#181818" points="244.25,378.55,254.0116,379.8578,249.0482,377.144,251.762,372.1806,244.25,378.55" style="stroke:#181818;stroke-width:1.0;"/><text fill="#000000" font-family="sans-serif" font-size="13" lengthAdjust="spacing" textLength="24" x="251.809" y="283.5093">0..n</text><text fill="#000000" font-family="sans-serif" font-size="13" lengthAdjust="spacing" textLength="8" x="252.1137" y="377.9922">1</text></g><!--link Job to Job--><g id="link_Job_Job"><path codeLine="80" d="M1186.09,288.42 C1206.49,293.63 1221,308.82 1221,334 C1221,359.18 1212.3034,372.8853 1191.9034,378.0953 " fill="none" id="Job-to-Job" style="stroke:#181818;stroke-width:1.0;"/><polygon fill="#181818" points="1186.09,379.58,1195.7999,381.2286,1190.9345,378.3428,1193.8203,373.4774,1186.09,379.58" style="stroke:#181818;stroke-width:1.0;"/><text fill="#000000" font-family="sans-serif" font-size="13" lengthAdjust="spacing" textLength="24" x="1193.8562" y="281.9187">0..n</text><text fill="#000000" font-family="sans-serif" font-size="13" lengthAdjust="spacing" textLength="8" x="1193.9911" y="379.4414">1</text></g><!--link Visited to MilitaryStatus--><g id="link_Visited_MilitaryStatus"><path codeLine="81" d="M601.75,406.68 C678.38,446.41 766.9035,492.3081 837.9335,529.1381 " fill="none" id="Visited-to-MilitaryStatus" style="stroke:#181818;stroke-width:1.0;stroke-dasharray:7.0,7.0;"/><polygon fill="#181818" points="843.26,531.9,837.1114,524.2062,838.8212,529.5984,833.4289,531.3082,843.26,531.9" style="stroke:#181818;stroke-width:1.0;"/><text fill="#000000" font-family="sans-serif" font-size="13" lengthAdjust="spacing" textLength="24" x="609.4973" y="407.1071">0..n</text><text fill="#000000" font-family="sans-serif" font-size="13" lengthAdjust="spacing" textLength="8" x="821.0074" y="520.7506">1</text></g><!--link Visited to Gender--><g id="link_Visited_Gender"><path codeLine="82" d="M354.72,472.33 C329.8,503.8 309.3349,529.6263 292.1349,551.3463 " fill="none" id="Visited-to-Gender" style="stroke:#181818;stroke-width:1.0;stroke-dasharray:7.0,7.0;"/><polygon fill="#181818" points="288.41,556.05,297.1332,551.4776,291.5141,552.1302,290.8615,546.5111,288.41,556.05" style="stroke:#181818;stroke-width:1.0;"/><text fill="#000000" font-family="sans-serif" font-size="13" lengthAdjust="spacing" textLength="24" x="324.1148" y="492.3713">0..n</text><text fill="#000000" font-family="sans-serif" font-size="13" lengthAdjust="spacing" textLength="8" x="284.396" y="545.4858">1</text></g><!--link Visited to MarridationStatus--><g id="link_Visited_MarridationStatus"><path codeLine="83" d="M463.5,472.33 C463.5,503.8 463.5,528.33 463.5,550.05 " fill="none" id="Visited-to-MarridationStatus" style="stroke:#181818;stroke-width:1.0;stroke-dasharray:7.0,7.0;"/><polygon fill="#181818" points="463.5,556.05,467.5,547.05,463.5,551.05,459.5,547.05,463.5,556.05" style="stroke:#181818;stroke-width:1.0;"/><text fill="#000000" font-family="sans-serif" font-size="13" lengthAdjust="spacing" textLength="24" x="438.8438" y="492.3713">0..n</text><text fill="#000000" font-family="sans-serif" font-size="13" lengthAdjust="spacing" textLength="8" x="454.7375" y="545.4858">1</text></g><!--link Job to Organization--><g id="link_Job_Organization"><path codeLine="84" d="M1158.2,390.72 C1215.21,432.7 1288.1981,486.4229 1345.1681,528.3629 " fill="none" id="Job-to-Organization" style="stroke:#181818;stroke-width:1.0;"/><polygon fill="#181818" points="1350,531.92,1345.1236,523.3631,1345.9734,528.9557,1340.3808,529.8056,1350,531.92" style="stroke:#181818;stroke-width:1.0;"/><text fill="#000000" font-family="sans-serif" font-size="13" lengthAdjust="spacing" textLength="24" x="1141.9634" y="410.6104">0..n</text><text fill="#000000" font-family="sans-serif" font-size="13" lengthAdjust="spacing" textLength="8" x="1331.8141" y="520.7731">1</text></g><!--link RelVisitedMedicalCheckUpsease to Visited--><g id="link_RelVisitedMedicalCheckUpsease_Visited"><path codeLine="85" d="M342.35,128.06 C354.23,148.16 365.1779,166.6743 379.3579,190.6743 " fill="none" id="RelVisitedMedicalCheckUpsease-to-Visited" style="stroke:#181818;stroke-width:1.0;"/><polygon fill="#181818" points="382.41,195.84,381.2757,186.0567,379.8666,191.5352,374.3881,190.1261,382.41,195.84" style="stroke:#181818;stroke-width:1.0;"/><text fill="#000000" font-family="sans-serif" font-size="13" lengthAdjust="spacing" textLength="24" x="321.0214" y="148.3311">0..n</text><text fill="#000000" font-family="sans-serif" font-size="13" lengthAdjust="spacing" textLength="8" x="369.7566" y="184.9405">0</text></g><!--link RelVisitedMedicalCheckUpsease to MedicalCheckUpsease--><g id="link_RelVisitedMedicalCheckUpsease_MedicalCheckUpsease"><path codeLine="86" d="M270.25,128.06 C244.61,164.37 214.1616,207.4792 185.6116,247.8992 " fill="none" id="RelVisitedMedicalCheckUpsease-to-MedicalCheckUpsease" style="stroke:#181818;stroke-width:1.0;"/><polygon fill="#181818" points="182.15,252.8,190.6095,247.7566,185.0346,248.716,184.0752,243.1411,182.15,252.8" style="stroke:#181818;stroke-width:1.0;"/><text fill="#000000" font-family="sans-serif" font-size="13" lengthAdjust="spacing" textLength="24" x="239.6836" y="148.3311">0..n</text><text fill="#000000" font-family="sans-serif" font-size="13" lengthAdjust="spacing" textLength="8" x="178.8391" y="241.9695">0</text></g><!--link RelVisitedJob to Visited--><g id="link_RelVisitedJob_Visited"><path codeLine="87" d="M579.83,136.23 C569.05,154.45 559.9215,169.8839 547.6115,190.7239 " fill="none" id="RelVisitedJob-to-Visited" style="stroke:#181818;stroke-width:1.0;"/><polygon fill="#181818" points="544.56,195.89,552.5813,190.1753,547.103,191.585,545.6933,186.1066,544.56,195.89" style="stroke:#181818;stroke-width:1.0;"/><text fill="#000000" font-family="sans-serif" font-size="13" lengthAdjust="spacing" textLength="24" x="550.0869" y="156.6282">0..n</text><text fill="#000000" font-family="sans-serif" font-size="13" lengthAdjust="spacing" textLength="8" x="540.7742" y="184.9932">0</text></g><!--link RelVisitedJob to Job--><g id="link_RelVisitedJob_Job"><path codeLine="88" d="M719.26,129.51 C797.71,173.46 900.3453,230.9577 978.1253,274.5277 " fill="none" id="RelVisitedJob-to-Job" style="stroke:#181818;stroke-width:1.0;"/><polygon fill="#181818" points="983.36,277.46,977.4629,269.5718,978.9978,275.0164,973.5531,276.5513,983.36,277.46" style="stroke:#181818;stroke-width:1.0;"/><text fill="#000000" font-family="sans-serif" font-size="13" lengthAdjust="spacing" textLength="24" x="726.9033" y="129.9587">0..n</text><text fill="#000000" font-family="sans-serif" font-size="13" lengthAdjust="spacing" textLength="8" x="962.7898" y="266.7187">0</text></g><!--SRC=[bLHDSvim4BtxLsXyTZB9bKDd2CX17J0UX3FDYP51CMf0yWWvgTlfVw_0Wl2LDF75zjFRtRTFkwByL89xoZCg_oo0_WIs3rTW3UllnT_5WjQ4W4Z9CgAOu5WHTQekN8mszveTs564N3lMSIvw22Ed5yWAfeWyzwFSSADZe8iSsq_W3nXiOnHkLW1lmmqE8-oXRH-6xiwnwvy3TfF9XxOBBm5si84uVWIhZfBWBNIGxOELfsc95-umz4BVJLo4xJlae_Ynuu9BFXEHE3Q6EEcTOkYl4smx4LeZ1_PFOY-2CBcBmjY3aHU6RZ9E2dKbcE3T5aOeZ99O-xg9-wmcjDzn0zGMfWMfAX3A0-7iT-F-nS4hm4b9BO2LPFnWe6Ck9XZ9CachQeJIybY8CwMEE75b0SGLFL3vLl2xsBTrHA-sDL1Y28gfOgA4I5edrdaCaj4gbUnuoMAuNRc0akeaAMXhbit_bWS-bo9ZAIcSdARFksEb4xobIqL6nybQXJDnxnjS6frMgxZ5oQ_0I7ug154jpFWS_4uVff47LZ55irRx4vELcf6YkNCmRsw652WRIn-ieJLQIqCwDA-0PLu30-wPL7b6pXRmnTi0PQUK33heHf1_RWJByODYJT-OzlvoLcIZKJKoLCvPojHvb3odx91hzhfd- -i0wmOdeeMnV6OKke6Sd7mqEI-NV5Pxb-sz4qKLgw-iP-GBAKxq0r6zJVmfzlsDUXNoMNVi29wnshAnmJcfjbBi2rfQu4w8WXB-9NrQpDnIBM-kh_dowkhRydRPhS4dY5EpT2j3KjsRaMGEhatqS5XdEMPcv-CdWpMfFNZOFfo9NjpDihFm2o5pNWmk_7yL9XGD_0C0]--></g></svg>